:SAMPLES-PER-SECOND 30
:FULLY-SPECIFIED
:DEGREES
250
root  46.7485 38.531 15.3558 -178.076 15.2723 176.643
RightUpLeg  -12.5472 -19.2395 -22.7378
RightLeg  2.13366 -13.4887 3.19759
RightFoot  4.70486 -2.15749 15.4219
RightToes  0.00048216 0.542163 -0.142577
Spine  34.0164 -1.16754 2.27828
Spine1  6.38361 -0.269943 -1.28495
HEad  -4.62176 41.0564 -22.8746
LeftShoulder1  10.1367 -15.3365 -46.9488
LeftArm  -7.92893 5.08998 -22.1138
LeftForeArm  25.584 -30.0826 -5.1313
LeftHand  -0.25398 0.0180481 5.50724
RightShoulder  5.82566 10.4375 35.8085
RightArm  12.7431 -16.1817 27.6979
RightForeArm  -15.3733 22.3181 5.80992
RightHand  -1.14819 2.51665 -17.0494
LeftUpLeg  -21.4789 9.75179 2.54005
LeftLeg  26.9808 0.0378834 0.366058
LeftFoot  -6.66876 0.227049 -4.56813
LeftToes  1.06246e-005 4.65856e-005 -8.18501e-006
251
root  45.5569 38.6325 15.0855 -178.317 16.0945 176.229
RightUpLeg  -11.514 -19.2878 -23.8628
RightLeg  0.298596 -16.187 2.91648
RightFoot  2.9187 -1.56789 12.6554
RightToes  0.00048216 0.542163 -0.142577
Spine  32.4303 -0.802725 1.09489
Spine1  6.76268 -0.292809 -1.09503
HEad  -2.79391 41.7207 -22.1914
LeftShoulder1  10.0723 -15.1178 -47.2042
LeftArm  -6.83149 4.93482 -22.3558
LeftForeArm  24.8707 -30.4897 -5.26666
LeftHand  -0.25398 0.0180481 5.50724
RightShoulder  5.68562 10.0531 35.9586
RightArm  7.84672 -19.1846 29.4052
RightForeArm  -11.869 22.3344 5.59692
RightHand  -1.09044 2.21607 -16.7837
LeftUpLeg  -21.3528 12.714 -0.119819
LeftLeg  26.8959 -1.19134 -0.312489
LeftFoot  -6.97015 0.140336 -2.59162
LeftToes  1.06246e-005 4.65856e-005 -8.18501e-006
252
root  44.4089 38.8172 14.852 -178.748 17.5477 176.232
RightUpLeg  -11.7669 -20.0386 -23.974
RightLeg  2.80719 -16.2516 2.53384
RightFoot  1.80269 -1.2304 10.772
RightToes  0.00048216 0.542163 -0.142577
Spine  31.3045 -0.647974 1.11096
Spine1  7.05562 0.164369 -2.09906
HEad  -1.10427 42.2384 -21.4956
LeftShoulder1  9.945 -14.9092 -47.1345
LeftArm  -6.12213 5.04023 -22.6875
LeftForeArm  24.5202 -30.7314 -5.34362
LeftHand  -0.25398 0.0180481 5.50724
RightShoulder  5.63915 9.82846 36.3079
RightArm  3.53873 -21.4108 31.2001
RightForeArm  -10.0358 21.8913 5.51322
RightHand  -1.14307 2.27761 -17.4436
LeftUpLeg  -20.2261 14.2975 -2.05487
LeftLeg  25.5529 -0.685713 -0.0210402
LeftFoot  -6.86761 0.0709099 -0.766153
LeftToes  1.06246e-005 4.65856e-005 -8.18501e-006
253
root  43.3263 39.0549 14.6223 -179.259 20.0918 176.74
RightUpLeg  -13.7203 -22.6102 -21.7562
RightLeg  9.86833 -11.1129 0.829215
RightFoot  1.0716 -1.07837 9.96127
RightToes  0.00048216 0.542163 -0.142577
Spine  30.2859 -0.323858 1.69046
Spine1  7.47282 1.07134 -3.50829
HEad  0.178686 42.9413 -21.1084
LeftShoulder1  9.78498 -14.6609 -47.0078
LeftArm  -6.22265 5.71662 -23.128
LeftForeArm  24.3507 -30.9995 -5.41718
LeftHand  -0.25398 0.0180481 5.50724
RightShoulder  5.6738 9.78341 36.7013
RightArm  1.65106 -22.1835 32.4754
RightForeArm  -8.98429 20.9774 5.56472
RightHand  -1.06942 1.82703 -17.2977
LeftUpLeg  -18.5564 15.4901 -3.11468
LeftLeg  23.6688 0.857892 0.761408
LeftFoot  -6.53298 0.0159503 0.557925
LeftToes  1.06246e-005 4.65856e-005 -8.18501e-006
254
root  42.3541 39.3036 14.3795 -179.682 23.1987 177.362
RightUpLeg  -16.1485 -25.5523 -17.6744
RightLeg  18.2947 -4.49112 -1.95438
RightFoot  0.274134 -0.887364 8.71783
RightToes  0.00048216 0.542163 -0.142577
Spine  29.007 0.261145 1.7214
Spine1  7.97588 1.94575 -4.34267
HEad  1.37429 44.0324 -21.0427
LeftShoulder1  9.63534 -14.3634 -47.0608
LeftArm  -6.55854 7.05917 -23.3658
LeftForeArm  23.7964 -31.3429 -5.53101
LeftHand  -0.25398 0.0180481 5.50724
RightShoulder  5.69724 9.80082 36.8185
RightArm  2.20885 -21.7447 33.2432
RightForeArm  -6.835 20.2933 5.59807
RightHand  -0.842111 0.732623 -16.0003
LeftUpLeg  -16.8146 17.3616 -3.79275
LeftLeg  21.5524 2.13149 1.25327
LeftFoot  -6.15594 -0.0406522 1.71702
LeftToes  1.06246e-005 4.65856e-005 -8.18501e-006
255
root  41.4424 39.5509 14.1187 -179.958 26.1156 177.949
RightUpLeg  -16.5602 -21.2306 -15.702
RightLeg  25.879 -7.10891 -3.99734
RightFoot  -0.712242 -0.669743 7.14084
RightToes  0.00048216 0.542163 -0.142577
Spine  27.4739 0.725673 1.45767
Spine1  8.30769 2.40978 -4.52233
HEad  2.96047 45.6338 -20.6502
LeftShoulder1  9.47661 -14.0475 -47.119
LeftArm  -6.52871 9.02662 -23.2842
LeftForeArm  22.8705 -31.5719 -5.63901
LeftHand  -0.25398 0.0180481 5.50724
RightShoulder  5.6647 9.75944 36.7098
RightArm  3.9283 -21.0801 33.7546
RightForeArm  -3.72133 20.7682 5.36305
RightHand  -0.66149 -0.165421 -14.7
LeftUpLeg  -14.8291 18.6969 -4.0698
LeftLeg  18.8407 3.94963 1.05082
LeftFoot  -5.63904 -0.114281 2.97135
LeftToes  1.06246e-005 4.65856e-005 -8.18501e-006
256
root  40.5449 39.7642 13.8375 179.802 28.5996 178.424
RightUpLeg  -16.0358 -19.7267 -13.5011
RightLeg  32.1428 -8.85459 -6.17681
RightFoot  -1.65969 -0.543856 6.28576
RightToes  0.00048216 0.542163 -0.142577
Spine  25.8875 0.829562 1.39572
Spine1  8.31518 2.52172 -4.69518
HEad  4.83114 47.4609 -19.5217
LeftShoulder1  9.29256 -13.7544 -46.9855
LeftArm  -6.1515 11.4065 -23.0035
LeftForeArm  22.2235 -31.5375 -5.66747
LeftHand  -0.25398 0.0180481 5.50724
RightShoulder  5.58804 9.62298 36.5738
RightArm  5.03688 -20.7868 34.1425
RightForeArm  -1.47611 22.4249 5.07014
RightHand  -0.649663 -0.226361 -14.5733
LeftUpLeg  -12.4701 16.4746 -3.58227
LeftLeg  15.6659 9.06041 0.0504509
LeftFoot  -4.87063 -0.213246 4.28673
LeftToes  1.06246e-005 4.65856e-005 -8.18501e-006
257
root  39.672 39.9037 13.5401 179.462 30.997 178.662
RightUpLeg  -14.7362 -20.2427 -11.3663
RightLeg  37.1295 -9.29019 -7.72166
RightFoot  -2.54314 -0.46923 5.86437
RightToes  0.00048216 0.542163 -0.142577
Spine  24.301 0.802852 1.4259
Spine1  8.19013 2.6067 -5.1675
HEad  6.38919 48.9013 -18.1144
LeftShoulder1  9.14055 -13.516 -46.8615
LeftArm  -5.58672 13.7742 -22.5712
LeftForeArm  22.1922 -31.21 -5.58973
LeftHand  -0.25398 0.0180481 5.50724
RightShoulder  5.49562 9.44668 36.4433
RightArm  4.47152 -20.6559 34.4189
RightForeArm  -0.969875 24.4762 5.26673
RightHand  -0.756208 0.293806 -15.4579
LeftUpLeg  -10.3801 12.8908 -3.27626
LeftLeg  12.6703 15.3049 -1.29378
LeftFoot  -4.10491 -0.32898 5.59271
LeftToes  1.06246e-005 4.65856e-005 -8.18501e-006
258
root  38.8433 39.9711 13.2308 179.036 33.7699 178.672
RightUpLeg  -12.7809 -21.3974 -9.4
RightLeg  40.8554 -9.14774 -8.65696
RightFoot  -3.61028 -0.41183 5.7311
RightToes  0.00048216 0.542163 -0.142577
Spine  22.594 0.987949 1.38502
Spine1  8.21468 2.94995 -5.76718
HEad  7.35095 49.7315 -17.0188
LeftShoulder1  9.06513 -13.3208 -47.0168
LeftArm  -4.80671 15.7467 -22.0246
LeftForeArm  22.3848 -30.5316 -5.4161
LeftHand  -0.25398 0.0180481 5.50724
RightShoulder  5.42188 9.30972 36.3247
RightArm  3.12942 -20.2831 34.5488
RightForeArm  -1.89134 26.3301 5.7568
RightHand  -0.861494 0.752239 -16.3384
LeftUpLeg  -8.77704 9.86145 -3.41526
LeftLeg  10.0944 21.2038 -2.70268
LeftFoot  -3.62982 -0.447527 6.95876
LeftToes  1.06246e-005 4.65856e-005 -8.18501e-006
259
root  38.0486 39.9866 12.9139 178.658 37.0762 178.625
RightUpLeg  -10.2304 -22.6784 -7.64107
RightLeg  43.2488 -9.01968 -9.26759
RightFoot  -4.88442 -0.404147 6.5855
RightToes  0.00048216 0.542163 -0.142577
Spine  20.7066 1.43378 1.51513
Spine1  8.41816 3.6467 -6.45065
HEad  8.06555 50.2626 -16.3096
LeftShoulder1  9.00486 -13.1111 -47.2986
LeftArm  -3.99137 17.3244 -21.6362
LeftForeArm  22.2998 -29.5027 -5.17837
LeftHand  -0.25398 0.0180481 5.50724
RightShoulder  5.38177 9.22866 36.2803
RightArm  1.89568 -19.5458 34.5035
RightForeArm  -2.88847 27.81 6.15701
RightHand  -0.887327 0.807436 -16.6723
LeftUpLeg  -7.59147 7.54968 -3.81311
LeftLeg  7.7432 26.8988 -4.05743
LeftFoot  -3.41107 -0.579709 8.64372
LeftToes  1.06246e-005 4.65856e-005 -8.18501e-006
260
root  37.2617 39.9519 12.6071 178.371 40.7926 178.565
RightUpLeg  -7.25422 -24.1434 -6.2283
RightLeg  44.3462 -8.61194 -9.2082
RightFoot  -6.2248 -0.404641 8.08441
RightToes  0.00048216 0.542163 -0.142577
Spine  18.708 2.02292 1.93673
Spine1  8.65204 4.60532 -7.34279
HEad  8.89508 50.7398 -15.7018
LeftShoulder1  8.8919 -12.8671 -47.402
LeftArm  -3.63323 18.8099 -21.6457
LeftForeArm  21.8949 -28.3793 -4.94148
LeftHand  -0.25398 0.0180481 5.50724
RightShoulder  5.35421 9.16127 36.2873
RightArm  0.916081 -18.4882 34.4068
RightForeArm  -3.06159 28.9395 6.44014
RightHand  -0.85916 0.623848 -16.6202
LeftUpLeg  -6.98905 6.04394 -4.38722
LeftLeg  5.84373 32.1604 -5.18302
LeftFoot  -3.33848 -0.712426 10.4432
LeftToes  1.06246e-005 4.65856e-005 -8.18501e-006
